<?xml version="1.0" encoding="utf-8" standalone="no"?>
<!DOCTYPE svg PUBLIC "-//W3C//DTD SVG 1.1//EN"
  "http://www.w3.org/Graphics/SVG/1.1/DTD/svg11.dtd">
<svg xmlns:xlink="http://www.w3.org/1999/xlink" width="648pt" height="648pt" viewBox="0 0 648 648" xmlns="http://www.w3.org/2000/svg" version="1.1">
 <metadata>
  <rdf:RDF xmlns:dc="http://purl.org/dc/elements/1.1/" xmlns:cc="http://creativecommons.org/ns#" xmlns:rdf="http://www.w3.org/1999/02/22-rdf-syntax-ns#">
   <cc:Work>
    <dc:type rdf:resource="http://purl.org/dc/dcmitype/StillImage"/>
    <dc:date>2023-05-20T18:47:18.725168</dc:date>
    <dc:format>image/svg+xml</dc:format>
    <dc:creator>
     <cc:Agent>
      <dc:title>Matplotlib v3.7.1, https://matplotlib.org/</dc:title>
     </cc:Agent>
    </dc:creator>
   </cc:Work>
  </rdf:RDF>
 </metadata>
 <defs>
  <style type="text/css">*{stroke-linejoin: round; stroke-linecap: butt}</style>
 </defs>
 <g id="figure_1">
  <g id="patch_1">
   <path d="M 0 648 
L 648 648 
L 648 0 
L 0 0 
z
" style="fill: #ffffff"/>
  </g>
  <g id="axes_1">
   <g id="patch_2">
    <path d="M 527.818353 311.890258 
Q 460.356559 224.151356 394.257743 138.185104 
" clip-path="url(#pf2e2e668af)" style="fill: none; stroke: #0000ff; stroke-width: 2; stroke-linecap: round"/>
    <path d="M 395.110405 142.575203 
L 394.257743 138.185104 
L 398.281419 140.137034 
z
" clip-path="url(#pf2e2e668af)" style="fill: #0000ff; stroke: #0000ff; stroke-width: 2; stroke-linecap: round"/>
   </g>
   <g id="patch_3">
    <path d="M 521.106054 321.55559 
Q 332.098475 263.525853 145.228486 206.152406 
" clip-path="url(#pf2e2e668af)" style="fill: none; stroke: #0000ff; stroke-width: 2; stroke-linecap: round"/>
    <path d="M 148.465317 209.238329 
L 145.228486 206.152406 
L 149.639323 205.414495 
z
" clip-path="url(#pf2e2e668af)" style="fill: #0000ff; stroke: #0000ff; stroke-width: 2; stroke-linecap: round"/>
   </g>
   <g id="patch_4">
    <path d="M 521.106054 332.924424 
Q 332.098482 390.954166 145.228499 448.327619 
" clip-path="url(#pf2e2e668af)" style="fill: none; stroke: #0000ff; stroke-width: 2; stroke-linecap: round"/>
    <path d="M 149.639336 449.06553 
L 145.228499 448.327619 
L 148.46533 445.241696 
z
" clip-path="url(#pf2e2e668af)" style="fill: #0000ff; stroke: #0000ff; stroke-width: 2; stroke-linecap: round"/>
   </g>
   <g id="patch_5">
    <path d="M 381.08898 140.422334 
Q 381.088996 327.238911 381.089011 511.81942 
" clip-path="url(#pf2e2e668af)" style="fill: none; stroke: #ffa500; stroke-width: 2; stroke-linecap: round"/>
    <path d="M 383.089011 507.81942 
L 381.089011 511.81942 
L 379.089011 507.81942 
z
" clip-path="url(#pf2e2e668af)" style="fill: #ffa500; stroke: #ffa500; stroke-width: 2; stroke-linecap: round"/>
   </g>
   <g id="patch_6">
    <path d="M 143.08877 194.129808 
Q 252.833755 160.435533 360.441151 127.397548 
" clip-path="url(#pf2e2e668af)" style="fill: none; stroke: #ffa500; stroke-width: 2; stroke-linecap: round"/>
    <path d="M 356.030313 126.659637 
L 360.441151 127.397548 
L 357.20432 130.483471 
z
" clip-path="url(#pf2e2e668af)" style="fill: #ffa500; stroke: #ffa500; stroke-width: 2; stroke-linecap: round"/>
   </g>
   <g id="patch_7">
    <path d="M 136.382087 215.162955 
Q 252.833138 366.615877 367.921211 516.296149 
" clip-path="url(#pf2e2e668af)" style="fill: none; stroke: #0000ff; stroke-width: 2; stroke-linecap: round"/>
    <path d="M 367.068548 511.906051 
L 367.921211 516.296149 
L 363.897534 514.34422 
z
" clip-path="url(#pf2e2e668af)" style="fill: #0000ff; stroke: #0000ff; stroke-width: 2; stroke-linecap: round"/>
   </g>
   <g id="patch_8">
    <path d="M 124.57934 219.174846 
Q 124.579346 327.238888 124.579351 433.066861 
" clip-path="url(#pf2e2e668af)" style="fill: none; stroke: #ffa500; stroke-width: 2; stroke-linecap: round"/>
    <path d="M 126.579351 429.066861 
L 124.579351 433.066861 
L 122.579351 429.066861 
z
" clip-path="url(#pf2e2e668af)" style="fill: #ffa500; stroke: #ffa500; stroke-width: 2; stroke-linecap: round"/>
   </g>
   <g id="patch_9">
    <path d="M 143.088785 460.350216 
Q 252.833778 494.04448 360.441183 527.082455 
" clip-path="url(#pf2e2e668af)" style="fill: none; stroke: #ffa500; stroke-width: 2; stroke-linecap: round"/>
    <path d="M 357.204352 523.996531 
L 360.441183 527.082455 
L 356.030346 527.820366 
z
" clip-path="url(#pf2e2e668af)" style="fill: #ffa500; stroke: #ffa500; stroke-width: 2; stroke-linecap: round"/>
   </g>
   <g id="text_1">
    <g id="patch_10">
     <path d="M 450.262162 223.88344 
L 458.018589 233.971229 
Q 459.847216 236.349489 462.225476 234.520862 
L 469.897844 228.621636 
Q 472.276104 226.793009 470.447477 224.414748 
L 462.691051 214.326959 
Q 460.862424 211.948699 458.484164 213.777326 
L 450.811796 219.676553 
Q 448.433535 221.50518 450.262162 223.88344 
z
" clip-path="url(#pf2e2e668af)" style="fill: #ffffff; stroke: #ffffff; stroke-linejoin: miter"/>
    </g>
    <g clip-path="url(#pf2e2e668af)">
     <!-- 10 -->
     <g transform="translate(454.289103 220.787156) rotate(-307.556418) scale(0.1 -0.1)">
      <defs>
       <path id="DejaVuSans-31" d="M 794 531 
L 1825 531 
L 1825 4091 
L 703 3866 
L 703 4441 
L 1819 4666 
L 2450 4666 
L 2450 531 
L 3481 531 
L 3481 0 
L 794 0 
L 794 531 
z
" transform="scale(0.015625)"/>
       <path id="DejaVuSans-30" d="M 2034 4250 
Q 1547 4250 1301 3770 
Q 1056 3291 1056 2328 
Q 1056 1369 1301 889 
Q 1547 409 2034 409 
Q 2525 409 2770 889 
Q 3016 1369 3016 2328 
Q 3016 3291 2770 3770 
Q 2525 4250 2034 4250 
z
M 2034 4750 
Q 2819 4750 3233 4129 
Q 3647 3509 3647 2328 
Q 3647 1150 3233 529 
Q 2819 -91 2034 -91 
Q 1250 -91 836 529 
Q 422 1150 422 2328 
Q 422 3509 836 4129 
Q 1250 4750 2034 4750 
z
" transform="scale(0.015625)"/>
      </defs>
      <use xlink:href="#DejaVuSans-31"/>
      <use xlink:href="#DejaVuSans-30" x="63.623047"/>
     </g>
    </g>
   </g>
   <g id="text_2">
    <g id="patch_11">
     <path d="M 323.716936 269.152736 
L 335.881509 272.887544 
Q 338.749385 273.768049 339.62989 270.900173 
L 342.470435 261.648287 
Q 343.35094 258.780411 340.483064 257.899906 
L 328.318491 254.165098 
Q 325.450615 253.284593 324.57011 256.152469 
L 321.729565 265.404356 
Q 320.84906 268.272232 323.716936 269.152736 
z
" clip-path="url(#pf2e2e668af)" style="fill: #ffffff; stroke: #ffffff; stroke-linejoin: miter"/>
    </g>
    <g clip-path="url(#pf2e2e668af)">
     <!-- 12 -->
     <g transform="translate(325.207833 264.296766) rotate(-342.932292) scale(0.1 -0.1)">
      <defs>
       <path id="DejaVuSans-32" d="M 1228 531 
L 3431 531 
L 3431 0 
L 469 0 
L 469 531 
Q 828 903 1448 1529 
Q 2069 2156 2228 2338 
Q 2531 2678 2651 2914 
Q 2772 3150 2772 3378 
Q 2772 3750 2511 3984 
Q 2250 4219 1831 4219 
Q 1534 4219 1204 4116 
Q 875 4013 500 3803 
L 500 4441 
Q 881 4594 1212 4672 
Q 1544 4750 1819 4750 
Q 2544 4750 2975 4387 
Q 3406 4025 3406 3419 
Q 3406 3131 3298 2873 
Q 3191 2616 2906 2266 
Q 2828 2175 2409 1742 
Q 1991 1309 1228 531 
z
" transform="scale(0.015625)"/>
      </defs>
      <use xlink:href="#DejaVuSans-31"/>
      <use xlink:href="#DejaVuSans-32" x="63.623047"/>
     </g>
    </g>
   </g>
   <g id="text_3">
    <g id="patch_12">
     <path d="M 331.359641 399.381219 
L 337.441928 397.513815 
Q 340.309803 396.63331 339.429298 393.765435 
L 336.588753 384.513548 
Q 335.708248 381.645672 332.840372 382.526177 
L 326.758086 384.393581 
Q 323.89021 385.274086 324.770715 388.141962 
L 327.611261 397.393848 
Q 328.491766 400.261724 331.359641 399.381219 
z
" clip-path="url(#pf2e2e668af)" style="fill: #ffffff; stroke: #ffffff; stroke-linejoin: miter"/>
    </g>
    <g clip-path="url(#pf2e2e668af)">
     <!-- 6 -->
     <g transform="translate(329.868745 394.525248) rotate(-17.06771) scale(0.1 -0.1)">
      <defs>
       <path id="DejaVuSans-36" d="M 2113 2584 
Q 1688 2584 1439 2293 
Q 1191 2003 1191 1497 
Q 1191 994 1439 701 
Q 1688 409 2113 409 
Q 2538 409 2786 701 
Q 3034 994 3034 1497 
Q 3034 2003 2786 2293 
Q 2538 2584 2113 2584 
z
M 3366 4563 
L 3366 3988 
Q 3128 4100 2886 4159 
Q 2644 4219 2406 4219 
Q 1781 4219 1451 3797 
Q 1122 3375 1075 2522 
Q 1259 2794 1537 2939 
Q 1816 3084 2150 3084 
Q 2853 3084 3261 2657 
Q 3669 2231 3669 1497 
Q 3669 778 3244 343 
Q 2819 -91 2113 -91 
Q 1303 -91 875 529 
Q 447 1150 447 2328 
Q 447 3434 972 4092 
Q 1497 4750 2381 4750 
Q 2619 4750 2861 4703 
Q 3103 4656 3366 4563 
z
" transform="scale(0.015625)"/>
      </defs>
      <use xlink:href="#DejaVuSans-36"/>
     </g>
    </g>
   </g>
   <g id="text_4">
    <g id="patch_13">
     <path d="M 373.249933 324.058751 
L 373.249933 330.421251 
Q 373.249934 333.421251 376.249934 333.42125 
L 385.928059 333.42125 
Q 388.928059 333.421249 388.928058 330.421249 
L 388.928058 324.058749 
Q 388.928058 321.058749 385.928058 321.05875 
L 376.249933 321.05875 
Q 373.249933 321.058751 373.249933 324.058751 
z
" clip-path="url(#pf2e2e668af)" style="fill: #ffffff; stroke: #ffffff; stroke-linejoin: miter"/>
    </g>
    <g clip-path="url(#pf2e2e668af)">
     <!-- 3 -->
     <g transform="translate(378.32962 324.05875) rotate(-270.000005) scale(0.1 -0.1)">
      <defs>
       <path id="DejaVuSans-33" d="M 2597 2516 
Q 3050 2419 3304 2112 
Q 3559 1806 3559 1356 
Q 3559 666 3084 287 
Q 2609 -91 1734 -91 
Q 1441 -91 1130 -33 
Q 819 25 488 141 
L 488 750 
Q 750 597 1062 519 
Q 1375 441 1716 441 
Q 2309 441 2620 675 
Q 2931 909 2931 1356 
Q 2931 1769 2642 2001 
Q 2353 2234 1838 2234 
L 1294 2234 
L 1294 2753 
L 1863 2753 
Q 2328 2753 2575 2939 
Q 2822 3125 2822 3475 
Q 2822 3834 2567 4026 
Q 2313 4219 1838 4219 
Q 1578 4219 1281 4162 
Q 984 4106 628 3988 
L 628 4550 
Q 988 4650 1302 4700 
Q 1616 4750 1894 4750 
Q 2613 4750 3031 4423 
Q 3450 4097 3450 3541 
Q 3450 3153 3228 2886 
Q 3006 2619 2597 2516 
z
" transform="scale(0.015625)"/>
      </defs>
      <use xlink:href="#DejaVuSans-33"/>
     </g>
    </g>
   </g>
   <g id="text_5">
    <g id="patch_14">
     <path d="M 252.093793 168.86293 
L 258.176079 166.995526 
Q 261.043955 166.115021 260.16345 163.247145 
L 257.322905 153.995259 
Q 256.4424 151.127383 253.574524 152.007888 
L 247.492238 153.875292 
Q 244.624362 154.755797 245.504867 157.623673 
L 248.345412 166.875559 
Q 249.225917 169.743435 252.093793 168.86293 
z
" clip-path="url(#pf2e2e668af)" style="fill: #ffffff; stroke: #ffffff; stroke-linejoin: miter"/>
    </g>
    <g clip-path="url(#pf2e2e668af)">
     <!-- 2 -->
     <g transform="translate(250.602897 164.006959) rotate(-17.06771) scale(0.1 -0.1)">
      <use xlink:href="#DejaVuSans-32"/>
     </g>
    </g>
   </g>
   <g id="text_6">
    <g id="patch_15">
     <path d="M 244.680625 368.873521 
L 248.558838 373.917415 
Q 250.387466 376.295675 252.765726 374.467048 
L 260.438093 368.567821 
Q 262.816354 366.739194 260.987727 364.360933 
L 257.109513 359.317039 
Q 255.280886 356.938779 252.902626 358.767406 
L 245.230258 364.666633 
Q 242.851998 366.49526 244.680625 368.873521 
z
" clip-path="url(#pf2e2e668af)" style="fill: #ffffff; stroke: #ffffff; stroke-linejoin: miter"/>
    </g>
    <g clip-path="url(#pf2e2e668af)">
     <!-- 7 -->
     <g transform="translate(248.707565 365.777236) rotate(-307.556422) scale(0.1 -0.1)">
      <defs>
       <path id="DejaVuSans-37" d="M 525 4666 
L 3525 4666 
L 3525 4397 
L 1831 0 
L 1172 0 
L 2766 4134 
L 525 4134 
L 525 4666 
z
" transform="scale(0.015625)"/>
      </defs>
      <use xlink:href="#DejaVuSans-37"/>
     </g>
    </g>
   </g>
   <g id="text_7">
    <g id="patch_16">
     <path d="M 116.740283 324.058763 
L 116.740283 330.421263 
Q 116.740284 333.421263 119.740284 333.421263 
L 129.418409 333.421263 
Q 132.418409 333.421263 132.418408 330.421263 
L 132.418408 324.058763 
Q 132.418408 321.058763 129.418408 321.058763 
L 119.740283 321.058763 
Q 116.740283 321.058763 116.740283 324.058763 
z
" clip-path="url(#pf2e2e668af)" style="fill: #ffffff; stroke: #ffffff; stroke-linejoin: miter"/>
    </g>
    <g clip-path="url(#pf2e2e668af)">
     <!-- 3 -->
     <g transform="translate(121.819971 324.058763) rotate(-270.000003) scale(0.1 -0.1)">
      <use xlink:href="#DejaVuSans-33"/>
     </g>
    </g>
   </g>
   <g id="text_8">
    <g id="patch_17">
     <path d="M 247.492263 500.604722 
L 253.574549 502.472125 
Q 256.442425 503.35263 257.32293 500.484754 
L 260.163474 491.232867 
Q 261.043978 488.364991 258.176103 487.484486 
L 252.093816 485.617083 
Q 249.22594 484.736579 248.345436 487.604454 
L 245.504891 496.856341 
Q 244.624387 499.724217 247.492263 500.604722 
z
" clip-path="url(#pf2e2e668af)" style="fill: #ffffff; stroke: #ffffff; stroke-linejoin: miter"/>
    </g>
    <g clip-path="url(#pf2e2e668af)">
     <!-- 3 -->
     <g transform="translate(248.983159 495.748751) rotate(-342.932297) scale(0.1 -0.1)">
      <use xlink:href="#DejaVuSans-33"/>
     </g>
    </g>
   </g>
   <g id="PathCollection_1">
    <defs>
     <path id="m5c9964a9b5" d="M 0 19.364917 
C 5.135636 19.364917 10.061621 17.324507 13.693064 13.693064 
C 17.324507 10.061621 19.364917 5.135636 19.364917 0 
C 19.364917 -5.135636 17.324507 -10.061621 13.693064 -13.693064 
C 10.061621 -17.324507 5.135636 -19.364917 0 -19.364917 
C -5.135636 -19.364917 -10.061621 -17.324507 -13.693064 -13.693064 
C -17.324507 -10.061621 -19.364917 -5.135636 -19.364917 0 
C -19.364917 5.135636 -17.324507 10.061621 -13.693064 13.693064 
C -10.061621 17.324507 -5.135636 19.364917 0 19.364917 
z
" style="stroke: #004080"/>
    </defs>
    <g clip-path="url(#pf2e2e668af)">
     <use xlink:href="#m5c9964a9b5" x="539.620661" y="327.240006" style="fill: #004080; stroke: #004080"/>
     <use xlink:href="#m5c9964a9b5" x="381.088979" y="121.058182" style="fill: #004080; stroke: #004080"/>
     <use xlink:href="#m5c9964a9b5" x="124.579339" y="199.812636" style="fill: #004080; stroke: #004080"/>
     <use xlink:href="#m5c9964a9b5" x="124.579353" y="454.66739" style="fill: #004080; stroke: #004080"/>
     <use xlink:href="#m5c9964a9b5" x="381.089013" y="533.421818" style="fill: #004080; stroke: #004080"/>
    </g>
   </g>
   <g id="text_9">
    <g clip-path="url(#pf2e2e668af)">
     <!-- 1 -->
     <g style="fill: #ffffff" transform="translate(535.803161 330.551256) scale(0.12 -0.12)">
      <use xlink:href="#DejaVuSans-31"/>
     </g>
    </g>
   </g>
   <g id="text_10">
    <g clip-path="url(#pf2e2e668af)">
     <!-- 2 -->
     <g style="fill: #ffffff" transform="translate(377.271479 124.369432) scale(0.12 -0.12)">
      <use xlink:href="#DejaVuSans-32"/>
     </g>
    </g>
   </g>
   <g id="text_11">
    <g clip-path="url(#pf2e2e668af)">
     <!-- 3 -->
     <g style="fill: #ffffff" transform="translate(120.761839 203.123886) scale(0.12 -0.12)">
      <use xlink:href="#DejaVuSans-33"/>
     </g>
    </g>
   </g>
   <g id="text_12">
    <g clip-path="url(#pf2e2e668af)">
     <!-- 4 -->
     <g style="fill: #ffffff" transform="translate(120.761853 457.97864) scale(0.12 -0.12)">
      <defs>
       <path id="DejaVuSans-34" d="M 2419 4116 
L 825 1625 
L 2419 1625 
L 2419 4116 
z
M 2253 4666 
L 3047 4666 
L 3047 1625 
L 3713 1625 
L 3713 1100 
L 3047 1100 
L 3047 0 
L 2419 0 
L 2419 1100 
L 313 1100 
L 313 1709 
L 2253 4666 
z
" transform="scale(0.015625)"/>
      </defs>
      <use xlink:href="#DejaVuSans-34"/>
     </g>
    </g>
   </g>
   <g id="text_13">
    <g clip-path="url(#pf2e2e668af)">
     <!-- 5 -->
     <g style="fill: #ffffff" transform="translate(377.271513 536.733068) scale(0.12 -0.12)">
      <defs>
       <path id="DejaVuSans-35" d="M 691 4666 
L 3169 4666 
L 3169 4134 
L 1269 4134 
L 1269 2991 
Q 1406 3038 1543 3061 
Q 1681 3084 1819 3084 
Q 2600 3084 3056 2656 
Q 3513 2228 3513 1497 
Q 3513 744 3044 326 
Q 2575 -91 1722 -91 
Q 1428 -91 1123 -41 
Q 819 9 494 109 
L 494 744 
Q 775 591 1075 516 
Q 1375 441 1709 441 
Q 2250 441 2565 725 
Q 2881 1009 2881 1497 
Q 2881 1984 2565 2268 
Q 2250 2553 1709 2553 
Q 1456 2553 1204 2497 
Q 953 2441 691 2322 
L 691 4666 
z
" transform="scale(0.015625)"/>
      </defs>
      <use xlink:href="#DejaVuSans-35"/>
     </g>
    </g>
   </g>
   <g id="text_14">
    <g clip-path="url(#pf2e2e668af)">
     <!-- {'pred': 0, 'p': 10} -->
     <g transform="translate(484.816286 298.032398) scale(0.12 -0.12)">
      <defs>
       <path id="DejaVuSans-7b" d="M 3272 -594 
L 3272 -1044 
L 3078 -1044 
Q 2300 -1044 2036 -812 
Q 1772 -581 1772 109 
L 1772 856 
Q 1772 1328 1603 1509 
Q 1434 1691 991 1691 
L 800 1691 
L 800 2138 
L 991 2138 
Q 1438 2138 1605 2317 
Q 1772 2497 1772 2963 
L 1772 3713 
Q 1772 4403 2036 4633 
Q 2300 4863 3078 4863 
L 3272 4863 
L 3272 4416 
L 3059 4416 
Q 2619 4416 2484 4278 
Q 2350 4141 2350 3700 
L 2350 2925 
Q 2350 2434 2208 2212 
Q 2066 1991 1722 1913 
Q 2069 1828 2209 1606 
Q 2350 1384 2350 897 
L 2350 122 
Q 2350 -319 2484 -456 
Q 2619 -594 3059 -594 
L 3272 -594 
z
" transform="scale(0.015625)"/>
       <path id="DejaVuSans-27" d="M 1147 4666 
L 1147 2931 
L 616 2931 
L 616 4666 
L 1147 4666 
z
" transform="scale(0.015625)"/>
       <path id="DejaVuSans-70" d="M 1159 525 
L 1159 -1331 
L 581 -1331 
L 581 3500 
L 1159 3500 
L 1159 2969 
Q 1341 3281 1617 3432 
Q 1894 3584 2278 3584 
Q 2916 3584 3314 3078 
Q 3713 2572 3713 1747 
Q 3713 922 3314 415 
Q 2916 -91 2278 -91 
Q 1894 -91 1617 61 
Q 1341 213 1159 525 
z
M 3116 1747 
Q 3116 2381 2855 2742 
Q 2594 3103 2138 3103 
Q 1681 3103 1420 2742 
Q 1159 2381 1159 1747 
Q 1159 1113 1420 752 
Q 1681 391 2138 391 
Q 2594 391 2855 752 
Q 3116 1113 3116 1747 
z
" transform="scale(0.015625)"/>
       <path id="DejaVuSans-72" d="M 2631 2963 
Q 2534 3019 2420 3045 
Q 2306 3072 2169 3072 
Q 1681 3072 1420 2755 
Q 1159 2438 1159 1844 
L 1159 0 
L 581 0 
L 581 3500 
L 1159 3500 
L 1159 2956 
Q 1341 3275 1631 3429 
Q 1922 3584 2338 3584 
Q 2397 3584 2469 3576 
Q 2541 3569 2628 3553 
L 2631 2963 
z
" transform="scale(0.015625)"/>
       <path id="DejaVuSans-65" d="M 3597 1894 
L 3597 1613 
L 953 1613 
Q 991 1019 1311 708 
Q 1631 397 2203 397 
Q 2534 397 2845 478 
Q 3156 559 3463 722 
L 3463 178 
Q 3153 47 2828 -22 
Q 2503 -91 2169 -91 
Q 1331 -91 842 396 
Q 353 884 353 1716 
Q 353 2575 817 3079 
Q 1281 3584 2069 3584 
Q 2775 3584 3186 3129 
Q 3597 2675 3597 1894 
z
M 3022 2063 
Q 3016 2534 2758 2815 
Q 2500 3097 2075 3097 
Q 1594 3097 1305 2825 
Q 1016 2553 972 2059 
L 3022 2063 
z
" transform="scale(0.015625)"/>
       <path id="DejaVuSans-64" d="M 2906 2969 
L 2906 4863 
L 3481 4863 
L 3481 0 
L 2906 0 
L 2906 525 
Q 2725 213 2448 61 
Q 2172 -91 1784 -91 
Q 1150 -91 751 415 
Q 353 922 353 1747 
Q 353 2572 751 3078 
Q 1150 3584 1784 3584 
Q 2172 3584 2448 3432 
Q 2725 3281 2906 2969 
z
M 947 1747 
Q 947 1113 1208 752 
Q 1469 391 1925 391 
Q 2381 391 2643 752 
Q 2906 1113 2906 1747 
Q 2906 2381 2643 2742 
Q 2381 3103 1925 3103 
Q 1469 3103 1208 2742 
Q 947 2381 947 1747 
z
" transform="scale(0.015625)"/>
       <path id="DejaVuSans-3a" d="M 750 794 
L 1409 794 
L 1409 0 
L 750 0 
L 750 794 
z
M 750 3309 
L 1409 3309 
L 1409 2516 
L 750 2516 
L 750 3309 
z
" transform="scale(0.015625)"/>
       <path id="DejaVuSans-20" transform="scale(0.015625)"/>
       <path id="DejaVuSans-2c" d="M 750 794 
L 1409 794 
L 1409 256 
L 897 -744 
L 494 -744 
L 750 256 
L 750 794 
z
" transform="scale(0.015625)"/>
       <path id="DejaVuSans-7d" d="M 800 -594 
L 1019 -594 
Q 1456 -594 1589 -459 
Q 1722 -325 1722 122 
L 1722 897 
Q 1722 1384 1862 1606 
Q 2003 1828 2350 1913 
Q 2003 1991 1862 2212 
Q 1722 2434 1722 2925 
L 1722 3700 
Q 1722 4144 1589 4280 
Q 1456 4416 1019 4416 
L 800 4416 
L 800 4863 
L 997 4863 
Q 1775 4863 2036 4633 
Q 2297 4403 2297 3713 
L 2297 2963 
Q 2297 2497 2465 2317 
Q 2634 2138 3078 2138 
L 3272 2138 
L 3272 1691 
L 3078 1691 
Q 2634 1691 2465 1509 
Q 2297 1328 2297 856 
L 2297 109 
Q 2297 -581 2036 -812 
Q 1775 -1044 997 -1044 
L 800 -1044 
L 800 -594 
z
" transform="scale(0.015625)"/>
      </defs>
      <use xlink:href="#DejaVuSans-7b"/>
      <use xlink:href="#DejaVuSans-27" x="63.623047"/>
      <use xlink:href="#DejaVuSans-70" x="91.113281"/>
      <use xlink:href="#DejaVuSans-72" x="154.589844"/>
      <use xlink:href="#DejaVuSans-65" x="193.453125"/>
      <use xlink:href="#DejaVuSans-64" x="254.976562"/>
      <use xlink:href="#DejaVuSans-27" x="318.453125"/>
      <use xlink:href="#DejaVuSans-3a" x="345.943359"/>
      <use xlink:href="#DejaVuSans-20" x="379.634766"/>
      <use xlink:href="#DejaVuSans-30" x="411.421875"/>
      <use xlink:href="#DejaVuSans-2c" x="475.044922"/>
      <use xlink:href="#DejaVuSans-20" x="506.832031"/>
      <use xlink:href="#DejaVuSans-27" x="538.619141"/>
      <use xlink:href="#DejaVuSans-70" x="566.109375"/>
      <use xlink:href="#DejaVuSans-27" x="629.585938"/>
      <use xlink:href="#DejaVuSans-3a" x="657.076172"/>
      <use xlink:href="#DejaVuSans-20" x="690.767578"/>
      <use xlink:href="#DejaVuSans-31" x="722.554688"/>
      <use xlink:href="#DejaVuSans-30" x="786.177734"/>
      <use xlink:href="#DejaVuSans-7d" x="849.800781"/>
     </g>
    </g>
   </g>
   <g id="text_15">
    <g clip-path="url(#pf2e2e668af)">
     <!-- {'pred': 1, 'p': 0} -->
     <g transform="translate(330.102104 91.850574) scale(0.12 -0.12)">
      <use xlink:href="#DejaVuSans-7b"/>
      <use xlink:href="#DejaVuSans-27" x="63.623047"/>
      <use xlink:href="#DejaVuSans-70" x="91.113281"/>
      <use xlink:href="#DejaVuSans-72" x="154.589844"/>
      <use xlink:href="#DejaVuSans-65" x="193.453125"/>
      <use xlink:href="#DejaVuSans-64" x="254.976562"/>
      <use xlink:href="#DejaVuSans-27" x="318.453125"/>
      <use xlink:href="#DejaVuSans-3a" x="345.943359"/>
      <use xlink:href="#DejaVuSans-20" x="379.634766"/>
      <use xlink:href="#DejaVuSans-31" x="411.421875"/>
      <use xlink:href="#DejaVuSans-2c" x="475.044922"/>
      <use xlink:href="#DejaVuSans-20" x="506.832031"/>
      <use xlink:href="#DejaVuSans-27" x="538.619141"/>
      <use xlink:href="#DejaVuSans-70" x="566.109375"/>
      <use xlink:href="#DejaVuSans-27" x="629.585938"/>
      <use xlink:href="#DejaVuSans-3a" x="657.076172"/>
      <use xlink:href="#DejaVuSans-20" x="690.767578"/>
      <use xlink:href="#DejaVuSans-30" x="722.554688"/>
      <use xlink:href="#DejaVuSans-7d" x="786.177734"/>
     </g>
    </g>
   </g>
   <g id="text_16">
    <g clip-path="url(#pf2e2e668af)">
     <!-- {'pred': 1, 'p': 0} -->
     <g transform="translate(73.592464 170.605028) scale(0.12 -0.12)">
      <use xlink:href="#DejaVuSans-7b"/>
      <use xlink:href="#DejaVuSans-27" x="63.623047"/>
      <use xlink:href="#DejaVuSans-70" x="91.113281"/>
      <use xlink:href="#DejaVuSans-72" x="154.589844"/>
      <use xlink:href="#DejaVuSans-65" x="193.453125"/>
      <use xlink:href="#DejaVuSans-64" x="254.976562"/>
      <use xlink:href="#DejaVuSans-27" x="318.453125"/>
      <use xlink:href="#DejaVuSans-3a" x="345.943359"/>
      <use xlink:href="#DejaVuSans-20" x="379.634766"/>
      <use xlink:href="#DejaVuSans-31" x="411.421875"/>
      <use xlink:href="#DejaVuSans-2c" x="475.044922"/>
      <use xlink:href="#DejaVuSans-20" x="506.832031"/>
      <use xlink:href="#DejaVuSans-27" x="538.619141"/>
      <use xlink:href="#DejaVuSans-70" x="566.109375"/>
      <use xlink:href="#DejaVuSans-27" x="629.585938"/>
      <use xlink:href="#DejaVuSans-3a" x="657.076172"/>
      <use xlink:href="#DejaVuSans-20" x="690.767578"/>
      <use xlink:href="#DejaVuSans-30" x="722.554688"/>
      <use xlink:href="#DejaVuSans-7d" x="786.177734"/>
     </g>
    </g>
   </g>
   <g id="text_17">
    <g clip-path="url(#pf2e2e668af)">
     <!-- {'pred': 1, 'p': 0} -->
     <g transform="translate(73.592478 425.459782) scale(0.12 -0.12)">
      <use xlink:href="#DejaVuSans-7b"/>
      <use xlink:href="#DejaVuSans-27" x="63.623047"/>
      <use xlink:href="#DejaVuSans-70" x="91.113281"/>
      <use xlink:href="#DejaVuSans-72" x="154.589844"/>
      <use xlink:href="#DejaVuSans-65" x="193.453125"/>
      <use xlink:href="#DejaVuSans-64" x="254.976562"/>
      <use xlink:href="#DejaVuSans-27" x="318.453125"/>
      <use xlink:href="#DejaVuSans-3a" x="345.943359"/>
      <use xlink:href="#DejaVuSans-20" x="379.634766"/>
      <use xlink:href="#DejaVuSans-31" x="411.421875"/>
      <use xlink:href="#DejaVuSans-2c" x="475.044922"/>
      <use xlink:href="#DejaVuSans-20" x="506.832031"/>
      <use xlink:href="#DejaVuSans-27" x="538.619141"/>
      <use xlink:href="#DejaVuSans-70" x="566.109375"/>
      <use xlink:href="#DejaVuSans-27" x="629.585938"/>
      <use xlink:href="#DejaVuSans-3a" x="657.076172"/>
      <use xlink:href="#DejaVuSans-20" x="690.767578"/>
      <use xlink:href="#DejaVuSans-30" x="722.554688"/>
      <use xlink:href="#DejaVuSans-7d" x="786.177734"/>
     </g>
    </g>
   </g>
   <g id="text_18">
    <g clip-path="url(#pf2e2e668af)">
     <!-- {'pred': 3, 'p': -10} -->
     <g transform="translate(324.11995 504.21421) scale(0.12 -0.12)">
      <defs>
       <path id="DejaVuSans-2d" d="M 313 2009 
L 1997 2009 
L 1997 1497 
L 313 1497 
L 313 2009 
z
" transform="scale(0.015625)"/>
      </defs>
      <use xlink:href="#DejaVuSans-7b"/>
      <use xlink:href="#DejaVuSans-27" x="63.623047"/>
      <use xlink:href="#DejaVuSans-70" x="91.113281"/>
      <use xlink:href="#DejaVuSans-72" x="154.589844"/>
      <use xlink:href="#DejaVuSans-65" x="193.453125"/>
      <use xlink:href="#DejaVuSans-64" x="254.976562"/>
      <use xlink:href="#DejaVuSans-27" x="318.453125"/>
      <use xlink:href="#DejaVuSans-3a" x="345.943359"/>
      <use xlink:href="#DejaVuSans-20" x="379.634766"/>
      <use xlink:href="#DejaVuSans-33" x="411.421875"/>
      <use xlink:href="#DejaVuSans-2c" x="475.044922"/>
      <use xlink:href="#DejaVuSans-20" x="506.832031"/>
      <use xlink:href="#DejaVuSans-27" x="538.619141"/>
      <use xlink:href="#DejaVuSans-70" x="566.109375"/>
      <use xlink:href="#DejaVuSans-27" x="629.585938"/>
      <use xlink:href="#DejaVuSans-3a" x="657.076172"/>
      <use xlink:href="#DejaVuSans-20" x="690.767578"/>
      <use xlink:href="#DejaVuSans-2d" x="722.554688"/>
      <use xlink:href="#DejaVuSans-31" x="758.638672"/>
      <use xlink:href="#DejaVuSans-30" x="822.261719"/>
      <use xlink:href="#DejaVuSans-7d" x="885.884766"/>
     </g>
    </g>
   </g>
   <g id="text_19">
    <!-- Initial Spanning Tree Structure -->
    <g transform="translate(241.19625 71.76) scale(0.12 -0.12)">
     <defs>
      <path id="DejaVuSans-49" d="M 628 4666 
L 1259 4666 
L 1259 0 
L 628 0 
L 628 4666 
z
" transform="scale(0.015625)"/>
      <path id="DejaVuSans-6e" d="M 3513 2113 
L 3513 0 
L 2938 0 
L 2938 2094 
Q 2938 2591 2744 2837 
Q 2550 3084 2163 3084 
Q 1697 3084 1428 2787 
Q 1159 2491 1159 1978 
L 1159 0 
L 581 0 
L 581 3500 
L 1159 3500 
L 1159 2956 
Q 1366 3272 1645 3428 
Q 1925 3584 2291 3584 
Q 2894 3584 3203 3211 
Q 3513 2838 3513 2113 
z
" transform="scale(0.015625)"/>
      <path id="DejaVuSans-69" d="M 603 3500 
L 1178 3500 
L 1178 0 
L 603 0 
L 603 3500 
z
M 603 4863 
L 1178 4863 
L 1178 4134 
L 603 4134 
L 603 4863 
z
" transform="scale(0.015625)"/>
      <path id="DejaVuSans-74" d="M 1172 4494 
L 1172 3500 
L 2356 3500 
L 2356 3053 
L 1172 3053 
L 1172 1153 
Q 1172 725 1289 603 
Q 1406 481 1766 481 
L 2356 481 
L 2356 0 
L 1766 0 
Q 1100 0 847 248 
Q 594 497 594 1153 
L 594 3053 
L 172 3053 
L 172 3500 
L 594 3500 
L 594 4494 
L 1172 4494 
z
" transform="scale(0.015625)"/>
      <path id="DejaVuSans-61" d="M 2194 1759 
Q 1497 1759 1228 1600 
Q 959 1441 959 1056 
Q 959 750 1161 570 
Q 1363 391 1709 391 
Q 2188 391 2477 730 
Q 2766 1069 2766 1631 
L 2766 1759 
L 2194 1759 
z
M 3341 1997 
L 3341 0 
L 2766 0 
L 2766 531 
Q 2569 213 2275 61 
Q 1981 -91 1556 -91 
Q 1019 -91 701 211 
Q 384 513 384 1019 
Q 384 1609 779 1909 
Q 1175 2209 1959 2209 
L 2766 2209 
L 2766 2266 
Q 2766 2663 2505 2880 
Q 2244 3097 1772 3097 
Q 1472 3097 1187 3025 
Q 903 2953 641 2809 
L 641 3341 
Q 956 3463 1253 3523 
Q 1550 3584 1831 3584 
Q 2591 3584 2966 3190 
Q 3341 2797 3341 1997 
z
" transform="scale(0.015625)"/>
      <path id="DejaVuSans-6c" d="M 603 4863 
L 1178 4863 
L 1178 0 
L 603 0 
L 603 4863 
z
" transform="scale(0.015625)"/>
      <path id="DejaVuSans-53" d="M 3425 4513 
L 3425 3897 
Q 3066 4069 2747 4153 
Q 2428 4238 2131 4238 
Q 1616 4238 1336 4038 
Q 1056 3838 1056 3469 
Q 1056 3159 1242 3001 
Q 1428 2844 1947 2747 
L 2328 2669 
Q 3034 2534 3370 2195 
Q 3706 1856 3706 1288 
Q 3706 609 3251 259 
Q 2797 -91 1919 -91 
Q 1588 -91 1214 -16 
Q 841 59 441 206 
L 441 856 
Q 825 641 1194 531 
Q 1563 422 1919 422 
Q 2459 422 2753 634 
Q 3047 847 3047 1241 
Q 3047 1584 2836 1778 
Q 2625 1972 2144 2069 
L 1759 2144 
Q 1053 2284 737 2584 
Q 422 2884 422 3419 
Q 422 4038 858 4394 
Q 1294 4750 2059 4750 
Q 2388 4750 2728 4690 
Q 3069 4631 3425 4513 
z
" transform="scale(0.015625)"/>
      <path id="DejaVuSans-67" d="M 2906 1791 
Q 2906 2416 2648 2759 
Q 2391 3103 1925 3103 
Q 1463 3103 1205 2759 
Q 947 2416 947 1791 
Q 947 1169 1205 825 
Q 1463 481 1925 481 
Q 2391 481 2648 825 
Q 2906 1169 2906 1791 
z
M 3481 434 
Q 3481 -459 3084 -895 
Q 2688 -1331 1869 -1331 
Q 1566 -1331 1297 -1286 
Q 1028 -1241 775 -1147 
L 775 -588 
Q 1028 -725 1275 -790 
Q 1522 -856 1778 -856 
Q 2344 -856 2625 -561 
Q 2906 -266 2906 331 
L 2906 616 
Q 2728 306 2450 153 
Q 2172 0 1784 0 
Q 1141 0 747 490 
Q 353 981 353 1791 
Q 353 2603 747 3093 
Q 1141 3584 1784 3584 
Q 2172 3584 2450 3431 
Q 2728 3278 2906 2969 
L 2906 3500 
L 3481 3500 
L 3481 434 
z
" transform="scale(0.015625)"/>
      <path id="DejaVuSans-54" d="M -19 4666 
L 3928 4666 
L 3928 4134 
L 2272 4134 
L 2272 0 
L 1638 0 
L 1638 4134 
L -19 4134 
L -19 4666 
z
" transform="scale(0.015625)"/>
      <path id="DejaVuSans-75" d="M 544 1381 
L 544 3500 
L 1119 3500 
L 1119 1403 
Q 1119 906 1312 657 
Q 1506 409 1894 409 
Q 2359 409 2629 706 
Q 2900 1003 2900 1516 
L 2900 3500 
L 3475 3500 
L 3475 0 
L 2900 0 
L 2900 538 
Q 2691 219 2414 64 
Q 2138 -91 1772 -91 
Q 1169 -91 856 284 
Q 544 659 544 1381 
z
M 1991 3584 
L 1991 3584 
z
" transform="scale(0.015625)"/>
      <path id="DejaVuSans-63" d="M 3122 3366 
L 3122 2828 
Q 2878 2963 2633 3030 
Q 2388 3097 2138 3097 
Q 1578 3097 1268 2742 
Q 959 2388 959 1747 
Q 959 1106 1268 751 
Q 1578 397 2138 397 
Q 2388 397 2633 464 
Q 2878 531 3122 666 
L 3122 134 
Q 2881 22 2623 -34 
Q 2366 -91 2075 -91 
Q 1284 -91 818 406 
Q 353 903 353 1747 
Q 353 2603 823 3093 
Q 1294 3584 2113 3584 
Q 2378 3584 2631 3529 
Q 2884 3475 3122 3366 
z
" transform="scale(0.015625)"/>
     </defs>
     <use xlink:href="#DejaVuSans-49"/>
     <use xlink:href="#DejaVuSans-6e" x="29.492188"/>
     <use xlink:href="#DejaVuSans-69" x="92.871094"/>
     <use xlink:href="#DejaVuSans-74" x="120.654297"/>
     <use xlink:href="#DejaVuSans-69" x="159.863281"/>
     <use xlink:href="#DejaVuSans-61" x="187.646484"/>
     <use xlink:href="#DejaVuSans-6c" x="248.925781"/>
     <use xlink:href="#DejaVuSans-20" x="276.708984"/>
     <use xlink:href="#DejaVuSans-53" x="308.496094"/>
     <use xlink:href="#DejaVuSans-70" x="371.972656"/>
     <use xlink:href="#DejaVuSans-61" x="435.449219"/>
     <use xlink:href="#DejaVuSans-6e" x="496.728516"/>
     <use xlink:href="#DejaVuSans-6e" x="560.107422"/>
     <use xlink:href="#DejaVuSans-69" x="623.486328"/>
     <use xlink:href="#DejaVuSans-6e" x="651.269531"/>
     <use xlink:href="#DejaVuSans-67" x="714.648438"/>
     <use xlink:href="#DejaVuSans-20" x="778.125"/>
     <use xlink:href="#DejaVuSans-54" x="809.912109"/>
     <use xlink:href="#DejaVuSans-72" x="856.246094"/>
     <use xlink:href="#DejaVuSans-65" x="895.109375"/>
     <use xlink:href="#DejaVuSans-65" x="956.632812"/>
     <use xlink:href="#DejaVuSans-20" x="1018.15625"/>
     <use xlink:href="#DejaVuSans-53" x="1049.943359"/>
     <use xlink:href="#DejaVuSans-74" x="1113.419922"/>
     <use xlink:href="#DejaVuSans-72" x="1152.628906"/>
     <use xlink:href="#DejaVuSans-75" x="1193.742188"/>
     <use xlink:href="#DejaVuSans-63" x="1257.121094"/>
     <use xlink:href="#DejaVuSans-74" x="1312.101562"/>
     <use xlink:href="#DejaVuSans-75" x="1351.310547"/>
     <use xlink:href="#DejaVuSans-72" x="1414.689453"/>
     <use xlink:href="#DejaVuSans-65" x="1453.552734"/>
    </g>
   </g>
  </g>
 </g>
 <defs>
  <clipPath id="pf2e2e668af">
   <rect x="81" y="77.76" width="502.2" height="498.96"/>
  </clipPath>
 </defs>
</svg>
